<?xml version="1.0" encoding="UTF-8" standalone="no"?>
<!DOCTYPE svg PUBLIC "-//W3C//DTD SVG 1.0//EN" "http://www.w3.org/TR/2001/PR-SVG-20010719/DTD/svg10.dtd">
<svg width="65cm" height="37cm" viewBox="118 217 1289 728" xmlns="http://www.w3.org/2000/svg" xmlns:xlink="http://www.w3.org/1999/xlink">
  <defs/>
  <g id="Hintergrund">
    <text font-size="12.8" style="fill: #000000; fill-opacity: 1; stroke: none;text-anchor:start;font-family:sans-serif;font-style:normal;font-weight:normal" x="145" y="277.95">
      <tspan xml:space="preserve" x="145" y="277.95"> V1=24VDC</tspan>
    </text>
    <rect style="fill: #ffffff; fill-opacity: 1; stroke-opacity: 1; stroke-width: 2; stroke: #000000" x="400" y="260" width="120" height="40" rx="0" ry="0"/>
    <g>
      <rect style="fill: #000000; fill-opacity: 1; stroke-opacity: 1; stroke-width: 2; stroke: #000000" x="180" y="437.391" width="37.3913" height="5.6087" rx="0" ry="0"/>
      <line style="fill: none; stroke-opacity: 1; stroke-width: 2; stroke: #000000" x1="198.696" y1="400" x2="198.696" y2="437.391"/>
    </g>
    <g>
      <rect style="fill: none; stroke: none" x="120" y="256" width="50" height="50" rx="0" ry="0"/>
      <ellipse style="fill: #ffffff; fill-opacity: 1; stroke-opacity: 1; stroke-width: 2; stroke: #000000" cx="145" cy="281" rx="5" ry="5"/>
    </g>
    <line style="fill: none; stroke-opacity: 1; stroke-width: 2; stroke: #000000" x1="260" y1="280" x2="340" y2="280"/>
    <g>
      <rect style="fill: none; stroke: none" x="120" y="380" width="40" height="40" rx="0" ry="0"/>
      <ellipse style="fill: #ffffff; fill-opacity: 1; stroke-opacity: 1; stroke-width: 2; stroke: #000000" cx="140" cy="400" rx="4" ry="4"/>
    </g>
    <text font-size="16.9333" style="fill: #000000; fill-opacity: 1; stroke: none;text-anchor:end;font-family:sans-serif;font-style:normal;font-weight:normal" x="140" y="405.875">
      <tspan x="140" y="405.875">9  </tspan>
    </text>
    <line style="fill: none; stroke-opacity: 1; stroke-width: 2; stroke: #000000" x1="140" y1="400" x2="198.696" y2="400"/>
    <text font-size="12.8" style="fill: #000000; fill-opacity: 1; stroke: none;text-anchor:start;font-family:sans-serif;font-style:normal;font-weight:normal" x="140" y="396.95">
      <tspan xml:space="preserve" x="140" y="396.95"> GND</tspan>
    </text>
    <text font-size="12.8" style="fill: #000000; fill-opacity: 1; stroke: none;text-anchor:middle;font-family:sans-serif;font-style:normal;font-weight:normal" x="460" y="271.9">
      <tspan x="460" y="271.9">LM317H</tspan>
    </text>
    <ellipse style="fill: #000000; fill-opacity: 1; stroke: none" cx="600" cy="280" rx="4" ry="4"/>
    <line style="fill: none; stroke-opacity: 1; stroke-width: 2; stroke: #000000" x1="520" y1="280" x2="600" y2="280"/>
    <g>
      <line style="fill: none; stroke-opacity: 1; stroke-width: 2; stroke: #000000" x1="600" y1="300" x2="600" y2="320"/>
      <rect style="fill: #ffffff; fill-opacity: 1; stroke-opacity: 1; stroke-width: 2; stroke: #000000" x="592" y="320" width="16" height="40" rx="0" ry="0"/>
      <line style="fill: none; stroke-opacity: 1; stroke-width: 2; stroke: #000000" x1="600" y1="360" x2="600" y2="380"/>
    </g>
    <line style="fill: none; stroke-opacity: 1; stroke-width: 2; stroke: #000000" x1="600" y1="300" x2="600" y2="280"/>
    <ellipse style="fill: #000000; fill-opacity: 1; stroke: none" cx="600" cy="400" rx="4" ry="4"/>
    <line style="fill: none; stroke-opacity: 1; stroke-width: 2; stroke: #000000" x1="600" y1="380" x2="600" y2="400"/>
    <polyline style="fill: none; stroke-opacity: 1; stroke-width: 2; stroke: #000000" points="600,400 600,400 460,400 460,300 "/>
    <g>
      <line style="fill: none; stroke-opacity: 1; stroke-width: 2; stroke: #000000" x1="599.772" y1="419" x2="599.772" y2="439"/>
      <rect style="fill: #ffffff; fill-opacity: 1; stroke-opacity: 1; stroke-width: 2; stroke: #000000" x="591.772" y="439" width="16" height="40" rx="0" ry="0"/>
      <line style="fill: none; stroke-opacity: 1; stroke-width: 2; stroke: #000000" x1="599.772" y1="479" x2="599.772" y2="499"/>
    </g>
    <line style="fill: none; stroke-opacity: 1; stroke-width: 2; stroke: #000000" x1="600" y1="400" x2="599.772" y2="419"/>
    <text font-size="12.8" style="fill: #000000; fill-opacity: 1; stroke: none;text-anchor:start;font-family:sans-serif;font-style:normal;font-weight:normal" x="600" y="296.238">
      <tspan xml:space="preserve" x="600" y="296.238"> R1</tspan>
      <tspan xml:space="preserve" x="600" y="312.238"> 330Ω</tspan>
    </text>
    <text font-size="12.8" style="fill: #000000; fill-opacity: 1; stroke: none;text-anchor:start;font-family:sans-serif;font-style:normal;font-weight:normal" x="599.772" y="415.238">
      <tspan xml:space="preserve" x="599.772" y="415.238"> R2</tspan>
      <tspan xml:space="preserve" x="599.772" y="431.238"> 4k7Ω</tspan>
    </text>
    <g>
      <rect style="fill: #000000; fill-opacity: 1; stroke-opacity: 1; stroke-width: 2; stroke: #000000" x="581.772" y="557.391" width="37.3913" height="5.6087" rx="0" ry="0"/>
      <line style="fill: none; stroke-opacity: 1; stroke-width: 2; stroke: #000000" x1="600.468" y1="520" x2="600.468" y2="557.391"/>
    </g>
    <line style="fill: none; stroke-opacity: 1; stroke-width: 2; stroke: #000000" x1="599.772" y1="499" x2="600.466" y2="520"/>
    <ellipse style="fill: #000000; fill-opacity: 1; stroke: none" cx="680" cy="280" rx="4" ry="4"/>
    <g>
      <line style="fill: none; stroke-opacity: 1; stroke-width: 2; stroke: #000000" x1="680" y1="320" x2="680" y2="344"/>
      <line style="fill: none; stroke-opacity: 1; stroke-width: 2; stroke: #000000" x1="660" y1="344" x2="700" y2="344"/>
      <line style="fill: none; stroke-opacity: 1; stroke-width: 2; stroke: #000000" x1="660" y1="356" x2="700" y2="356"/>
      <line style="fill: none; stroke-opacity: 1; stroke-width: 2; stroke: #000000" x1="680" y1="356" x2="680" y2="380"/>
    </g>
    <text font-size="12.8" style="fill: #000000; fill-opacity: 1; stroke: none;text-anchor:start;font-family:sans-serif;font-style:normal;font-weight:normal" x="680" y="316.425">
      <tspan xml:space="preserve" x="680" y="316.425"> C1</tspan>
      <tspan xml:space="preserve" x="680" y="332.425"> 1µF</tspan>
    </text>
    <line style="fill: none; stroke-opacity: 1; stroke-width: 2; stroke: #000000" x1="680" y1="320" x2="680" y2="280"/>
    <line style="fill: none; stroke-opacity: 1; stroke-width: 2; stroke: #000000" x1="600" y1="280" x2="680" y2="280"/>
    <g>
      <rect style="fill: #000000; fill-opacity: 1; stroke-opacity: 1; stroke-width: 2; stroke: #000000" x="661.542" y="437.391" width="37.3913" height="5.6087" rx="0" ry="0"/>
      <line style="fill: none; stroke-opacity: 1; stroke-width: 2; stroke: #000000" x1="680.238" y1="400" x2="680.238" y2="437.391"/>
    </g>
    <line style="fill: none; stroke-opacity: 1; stroke-width: 2; stroke: #000000" x1="680.238" y1="400" x2="680" y2="380"/>
    <ellipse style="fill: #000000; fill-opacity: 1; stroke: none" cx="760" cy="280" rx="4" ry="4"/>
    <g>
      <line style="fill: none; stroke-opacity: 1; stroke-width: 2; stroke: #000000" x1="760" y1="320" x2="760" y2="344"/>
      <line style="fill: none; stroke-opacity: 1; stroke-width: 2; stroke: #000000" x1="740" y1="344" x2="780" y2="344"/>
      <line style="fill: none; stroke-opacity: 1; stroke-width: 2; stroke: #000000" x1="740" y1="356" x2="780" y2="356"/>
      <line style="fill: none; stroke-opacity: 1; stroke-width: 2; stroke: #000000" x1="760" y1="356" x2="760" y2="380"/>
    </g>
    <text font-size="12.8" style="fill: #000000; fill-opacity: 1; stroke: none;text-anchor:start;font-family:sans-serif;font-style:normal;font-weight:normal" x="760" y="316.425">
      <tspan xml:space="preserve" x="760" y="316.425"> C2</tspan>
      <tspan xml:space="preserve" x="760" y="332.425"> 100nF</tspan>
    </text>
    <line style="fill: none; stroke-opacity: 1; stroke-width: 2; stroke: #000000" x1="760" y1="320" x2="760" y2="280"/>
    <line style="fill: none; stroke-opacity: 1; stroke-width: 2; stroke: #000000" x1="680" y1="280" x2="760" y2="280"/>
    <g>
      <rect style="fill: #000000; fill-opacity: 1; stroke-opacity: 1; stroke-width: 2; stroke: #000000" x="741.542" y="437.391" width="37.3913" height="5.6087" rx="0" ry="0"/>
      <line style="fill: none; stroke-opacity: 1; stroke-width: 2; stroke: #000000" x1="760.238" y1="400" x2="760.238" y2="437.391"/>
    </g>
    <line style="fill: none; stroke-opacity: 1; stroke-width: 2; stroke: #000000" x1="760.238" y1="400" x2="760" y2="380"/>
    <text font-size="11.2889" style="fill: #000000; fill-opacity: 1; stroke: none;text-anchor:middle;font-family:sans-serif;font-style:normal;font-weight:normal" x="460" y="228.418">
      <tspan x="460" y="228.418">LM317 produces supply voltage V2</tspan>
      <tspan x="460" y="242.529">V2 = 1.25V ⋅ (1 + R2/R1) ≈ 19V</tspan>
      <tspan x="460" y="256.64"></tspan>
    </text>
    <ellipse style="fill: #000000; fill-opacity: 1; stroke: none" cx="260" cy="280" rx="4" ry="4"/>
    <g>
      <line style="fill: none; stroke-opacity: 1; stroke-width: 2; stroke: #000000" x1="260" y1="320" x2="260" y2="344"/>
      <line style="fill: none; stroke-opacity: 1; stroke-width: 2; stroke: #000000" x1="240" y1="344" x2="280" y2="344"/>
      <line style="fill: none; stroke-opacity: 1; stroke-width: 2; stroke: #000000" x1="240" y1="356" x2="280" y2="356"/>
      <line style="fill: none; stroke-opacity: 1; stroke-width: 2; stroke: #000000" x1="260" y1="356" x2="260" y2="380"/>
    </g>
    <text font-size="12.8" style="fill: #000000; fill-opacity: 1; stroke: none;text-anchor:start;font-family:sans-serif;font-style:normal;font-weight:normal" x="260" y="316.425">
      <tspan xml:space="preserve" x="260" y="316.425"> C5</tspan>
      <tspan xml:space="preserve" x="260" y="332.425"> 100µF</tspan>
    </text>
    <line style="fill: none; stroke-opacity: 1; stroke-width: 2; stroke: #000000" x1="260" y1="320" x2="260" y2="280"/>
    <g>
      <rect style="fill: #000000; fill-opacity: 1; stroke-opacity: 1; stroke-width: 2; stroke: #000000" x="241.09" y="437.391" width="37.3913" height="5.6087" rx="0" ry="0"/>
      <line style="fill: none; stroke-opacity: 1; stroke-width: 2; stroke: #000000" x1="259.786" y1="400" x2="259.786" y2="437.391"/>
    </g>
    <line style="fill: none; stroke-opacity: 1; stroke-width: 2; stroke: #000000" x1="259.786" y1="400" x2="260" y2="380"/>
    <line style="fill: none; stroke-opacity: 1; stroke-width: 2; stroke: #000000" x1="260" y1="280" x2="145" y2="281"/>
    <rect style="fill: #ffffff; fill-opacity: 1; stroke-opacity: 1; stroke-width: 2; stroke: #000000" x="260" y="600" width="160" height="80" rx="0" ry="0"/>
    <text font-size="11.2889" style="fill: #000000; fill-opacity: 1; stroke: none;text-anchor:middle;font-family:sans-serif;font-style:normal;font-weight:normal" x="340" y="636.844">
      <tspan x="340" y="636.844">AM1S</tspan>
      <tspan x="340" y="650.956">2403SZ</tspan>
    </text>
    <ellipse style="fill: #000000; fill-opacity: 1; stroke: none" cx="340" cy="280" rx="4" ry="4"/>
    <line style="fill: none; stroke-opacity: 1; stroke-width: 2; stroke: #000000" x1="340" y1="280" x2="400" y2="280"/>
    <line style="fill: none; stroke-opacity: 1; stroke-width: 2; stroke: #000000" x1="340" y1="280" x2="340" y2="600"/>
    <text font-size="11.2889" style="fill: #000000; fill-opacity: 1; stroke: none;text-anchor:end;font-family:sans-serif;font-style:normal;font-weight:normal" x="260" y="589.789">
      <tspan x="260" y="589.789">AM1S produces </tspan>
      <tspan x="260" y="603.9">supply voltage </tspan>
      <tspan x="260" y="618.011">for µC </tspan>
    </text>
    <g>
      <rect style="fill: #000000; fill-opacity: 1; stroke-opacity: 1; stroke-width: 2; stroke: #000000" x="321.09" y="797.391" width="37.3913" height="5.6087" rx="0" ry="0"/>
      <line style="fill: none; stroke-opacity: 1; stroke-width: 2; stroke: #000000" x1="339.786" y1="760" x2="339.786" y2="797.391"/>
    </g>
    <line style="fill: none; stroke-opacity: 1; stroke-width: 2; stroke: #000000" x1="339.786" y1="760" x2="340" y2="680"/>
    <ellipse style="fill: #000000; fill-opacity: 1; stroke: none" cx="460" cy="638.91" rx="4" ry="4"/>
    <g>
      <line style="fill: none; stroke-opacity: 1; stroke-width: 2; stroke: #000000" x1="460" y1="678.91" x2="460" y2="702.91"/>
      <line style="fill: none; stroke-opacity: 1; stroke-width: 2; stroke: #000000" x1="440" y1="702.91" x2="480" y2="702.91"/>
      <line style="fill: none; stroke-opacity: 1; stroke-width: 2; stroke: #000000" x1="440" y1="714.91" x2="480" y2="714.91"/>
      <line style="fill: none; stroke-opacity: 1; stroke-width: 2; stroke: #000000" x1="460" y1="714.91" x2="460" y2="738.91"/>
    </g>
    <text font-size="12.8" style="fill: #000000; fill-opacity: 1; stroke: none;text-anchor:start;font-family:sans-serif;font-style:normal;font-weight:normal" x="460" y="675.335">
      <tspan xml:space="preserve" x="460" y="675.335"> C6</tspan>
      <tspan xml:space="preserve" x="460" y="691.335"> 33µF</tspan>
    </text>
    <line style="fill: none; stroke-opacity: 1; stroke-width: 2; stroke: #000000" x1="460" y1="678.91" x2="460" y2="638.91"/>
    <g>
      <rect style="fill: #000000; fill-opacity: 1; stroke-opacity: 1; stroke-width: 2; stroke: #000000" x="440.862" y="796.301" width="37.3913" height="5.6087" rx="0" ry="0"/>
      <line style="fill: none; stroke-opacity: 1; stroke-width: 2; stroke: #000000" x1="459.558" y1="758.91" x2="459.558" y2="796.301"/>
    </g>
    <line style="fill: none; stroke-opacity: 1; stroke-width: 2; stroke: #000000" x1="459.558" y1="758.91" x2="460" y2="738.91"/>
    <line style="fill: none; stroke-opacity: 1; stroke-width: 2; stroke: #000000" x1="420" y1="640" x2="460" y2="638.91"/>
    <rect style="fill: #ffffff; fill-opacity: 1; stroke-opacity: 1; stroke-width: 2; stroke: #000000" x="540" y="580" width="120" height="120" rx="0" ry="0"/>
    <text font-size="12.8" style="fill: #000000; fill-opacity: 1; stroke: none;text-anchor:middle;font-family:sans-serif;font-style:normal;font-weight:normal" x="600" y="591.9">
      <tspan x="600" y="591.9"></tspan>
      <tspan x="600" y="607.9">ESP8266</tspan>
    </text>
    <line style="fill: none; stroke-opacity: 1; stroke-width: 2; stroke: #000000" x1="460" y1="638.91" x2="540" y2="640"/>
    <text font-size="12.8" style="fill: #000000; fill-opacity: 1; stroke: none;text-anchor:start;font-family:sans-serif;font-style:normal;font-weight:normal" x="420" y="636.95">
      <tspan xml:space="preserve" x="420" y="636.95"> V3=3.3V</tspan>
    </text>
    <text font-size="12.8" style="fill: #000000; fill-opacity: 1; stroke: none;text-anchor:start;font-family:sans-serif;font-style:normal;font-weight:normal" x="540" y="644.425">
      <tspan xml:space="preserve" x="540" y="644.425"> VCC</tspan>
    </text>
    <text font-size="12.8" style="fill: #000000; fill-opacity: 1; stroke: none;text-anchor:end;font-family:sans-serif;font-style:normal;font-weight:normal" x="660" y="644.425">
      <tspan x="660" y="644.425">GPIO16 </tspan>
    </text>
    <text font-size="12.8" style="fill: #000000; fill-opacity: 1; stroke: none;text-anchor:middle;font-family:sans-serif;font-style:normal;font-weight:normal" x="600" y="696.95">
      <tspan x="600" y="696.95">GND</tspan>
    </text>
    <g>
      <rect style="fill: #000000; fill-opacity: 1; stroke-opacity: 1; stroke-width: 2; stroke: #000000" x="581.09" y="797.391" width="37.3913" height="5.6087" rx="0" ry="0"/>
      <line style="fill: none; stroke-opacity: 1; stroke-width: 2; stroke: #000000" x1="599.786" y1="760" x2="599.786" y2="797.391"/>
    </g>
    <line style="fill: none; stroke-opacity: 1; stroke-width: 2; stroke: #000000" x1="599.786" y1="760" x2="600" y2="700"/>
    <g>
      <line style="fill: none; stroke-opacity: 1; stroke-width: 2; stroke: #000000" x1="700" y1="640.09" x2="720" y2="640.09"/>
      <rect style="fill: #ffffff; fill-opacity: 1; stroke-opacity: 1; stroke-width: 2; stroke: #000000" x="720" y="630.09" width="40" height="20" rx="0" ry="0"/>
      <line style="fill: none; stroke-opacity: 1; stroke-width: 2; stroke: #000000" x1="760" y1="640.09" x2="780" y2="640.09"/>
    </g>
    <line style="fill: none; stroke-opacity: 1; stroke-width: 2; stroke: #000000" x1="660" y1="640" x2="700" y2="640.09"/>
    <text font-size="12.8" style="fill: #000000; fill-opacity: 1; stroke: none;text-anchor:middle;font-family:sans-serif;font-style:normal;font-weight:normal" x="740" y="605.04">
      <tspan x="740" y="605.04">R6</tspan>
      <tspan x="740" y="621.04">10kΩ</tspan>
      <tspan x="740" y="637.04"></tspan>
    </text>
    <ellipse style="fill: #000000; fill-opacity: 1; stroke: none" cx="800" cy="640" rx="4" ry="4"/>
    <line style="fill: none; stroke-opacity: 1; stroke-width: 2; stroke: #000000" x1="780" y1="640.09" x2="800" y2="640"/>
    <g>
      <line style="fill: none; stroke-opacity: 1; stroke-width: 2; stroke: #000000" x1="800" y1="680" x2="800" y2="704"/>
      <line style="fill: none; stroke-opacity: 1; stroke-width: 2; stroke: #000000" x1="780" y1="704" x2="820" y2="704"/>
      <line style="fill: none; stroke-opacity: 1; stroke-width: 2; stroke: #000000" x1="780" y1="716" x2="820" y2="716"/>
      <line style="fill: none; stroke-opacity: 1; stroke-width: 2; stroke: #000000" x1="800" y1="716" x2="800" y2="740"/>
    </g>
    <g>
      <rect style="fill: #000000; fill-opacity: 1; stroke-opacity: 1; stroke-width: 2; stroke: #000000" x="781.772" y="797.391" width="37.3913" height="5.6087" rx="0" ry="0"/>
      <line style="fill: none; stroke-opacity: 1; stroke-width: 2; stroke: #000000" x1="800.468" y1="760" x2="800.468" y2="797.391"/>
    </g>
    <line style="fill: none; stroke-opacity: 1; stroke-width: 2; stroke: #000000" x1="800.466" y1="760" x2="800" y2="740"/>
    <line style="fill: none; stroke-opacity: 1; stroke-width: 2; stroke: #000000" x1="800" y1="680" x2="800" y2="640"/>
    <text font-size="12.8" style="fill: #000000; fill-opacity: 1; stroke: none;text-anchor:start;font-family:sans-serif;font-style:normal;font-weight:normal" x="800" y="676.425">
      <tspan xml:space="preserve" x="800" y="676.425"> C4</tspan>
      <tspan xml:space="preserve" x="800" y="692.425"> 100nF</tspan>
    </text>
    <text font-size="12.8" style="fill: #000000; fill-opacity: 1; stroke: none;text-anchor:start;font-family:sans-serif;font-style:normal;font-weight:normal" x="660" y="636.95">
      <tspan xml:space="preserve" x="660" y="636.95"> PWM</tspan>
    </text>
    <g>
      <line style="fill: none; stroke-opacity: 1; stroke-width: 2; stroke: #000000" x1="820" y1="640.796" x2="840" y2="640.796"/>
      <rect style="fill: #ffffff; fill-opacity: 1; stroke-opacity: 1; stroke-width: 2; stroke: #000000" x="840" y="630.796" width="40" height="20" rx="0" ry="0"/>
      <line style="fill: none; stroke-opacity: 1; stroke-width: 2; stroke: #000000" x1="880" y1="640.796" x2="900" y2="640.796"/>
    </g>
    <ellipse style="fill: #000000; fill-opacity: 1; stroke: none" cx="920" cy="640" rx="4" ry="4"/>
    <line style="fill: none; stroke-opacity: 1; stroke-width: 2; stroke: #000000" x1="900" y1="640.796" x2="920" y2="640"/>
    <g>
      <line style="fill: none; stroke-opacity: 1; stroke-width: 2; stroke: #000000" x1="920" y1="680" x2="920" y2="704"/>
      <line style="fill: none; stroke-opacity: 1; stroke-width: 2; stroke: #000000" x1="900" y1="704" x2="940" y2="704"/>
      <line style="fill: none; stroke-opacity: 1; stroke-width: 2; stroke: #000000" x1="900" y1="716" x2="940" y2="716"/>
      <line style="fill: none; stroke-opacity: 1; stroke-width: 2; stroke: #000000" x1="920" y1="716" x2="920" y2="740"/>
    </g>
    <g>
      <rect style="fill: #000000; fill-opacity: 1; stroke-opacity: 1; stroke-width: 2; stroke: #000000" x="901.542" y="797.391" width="37.3913" height="5.6087" rx="0" ry="0"/>
      <line style="fill: none; stroke-opacity: 1; stroke-width: 2; stroke: #000000" x1="920.238" y1="760" x2="920.238" y2="797.391"/>
    </g>
    <line style="fill: none; stroke-opacity: 1; stroke-width: 2; stroke: #000000" x1="920.238" y1="760" x2="920" y2="740"/>
    <line style="fill: none; stroke-opacity: 1; stroke-width: 2; stroke: #000000" x1="920" y1="680" x2="920" y2="640"/>
    <text font-size="12.8" style="fill: #000000; fill-opacity: 1; stroke: none;text-anchor:start;font-family:sans-serif;font-style:normal;font-weight:normal" x="920" y="676.425">
      <tspan xml:space="preserve" x="920" y="676.425"> C3</tspan>
      <tspan xml:space="preserve" x="920" y="692.425"> 100nF</tspan>
    </text>
    <text font-size="12.8" style="fill: #000000; fill-opacity: 1; stroke: none;text-anchor:middle;font-family:sans-serif;font-style:normal;font-weight:normal" x="860" y="605.746">
      <tspan x="860" y="605.746">R5</tspan>
      <tspan x="860" y="621.746">10kΩ</tspan>
      <tspan x="860" y="637.746"></tspan>
    </text>
    <g>
      <line style="fill: none; stroke-opacity: 1; stroke-width: 2; stroke: #000000" x1="1020" y1="640" x2="1040" y2="640"/>
      <line style="fill: none; stroke-opacity: 1; stroke-width: 2; stroke: #000000" x1="1020" y1="680" x2="1040" y2="680"/>
      <polygon style="fill: #ffffff; fill-opacity: 1; stroke-opacity: 1; stroke-width: 2; stroke: #000000" fill-rule="evenodd" points="1040,620 1040,700 1110,660 "/>
      <line style="fill: none; stroke-opacity: 1; stroke-width: 2; stroke: #000000" x1="1044" y1="640" x2="1060" y2="640"/>
      <line style="fill: none; stroke-opacity: 1; stroke-width: 2; stroke: #000000" x1="1052" y1="632" x2="1052" y2="648"/>
      <line style="fill: none; stroke-opacity: 1; stroke-width: 2; stroke: #000000" x1="1044" y1="680" x2="1060" y2="680"/>
      <line style="fill: none; stroke-opacity: 1; stroke-width: 2; stroke: #000000" x1="1110" y1="660" x2="1130" y2="660"/>
    </g>
    <line style="fill: none; stroke-opacity: 1; stroke-width: 2; stroke: #000000" x1="920" y1="640" x2="1020" y2="640"/>
    <text font-size="11.2889" style="fill: #000000; fill-opacity: 1; stroke: none;text-anchor:start;font-family:sans-serif;font-style:normal;font-weight:normal" x="660" y="549.078">
      <tspan x="660" y="549.078">The PWM signal (e.g. 10kHz)</tspan>
      <tspan x="660" y="563.189">has to be filtered.</tspan>
      <tspan x="660" y="577.3">fc = 1/(2π⋅R⋅C) ≈ 160Hz</tspan>
    </text>
    <text font-size="12.8" style="fill: #000000; fill-opacity: 1; stroke: none;text-anchor:start;font-family:sans-serif;font-style:normal;font-weight:normal" x="1075" y="636.202">
      <tspan xml:space="preserve" x="1075" y="636.202"> V2=19V</tspan>
    </text>
    <g>
      <rect style="fill: #000000; fill-opacity: 1; stroke-opacity: 1; stroke-width: 2; stroke: #000000" x="1056.14" y="737.391" width="37.3913" height="5.6087" rx="0" ry="0"/>
      <line style="fill: none; stroke-opacity: 1; stroke-width: 2; stroke: #000000" x1="1074.84" y1="700" x2="1074.84" y2="737.391"/>
    </g>
    <line style="fill: none; stroke-opacity: 1; stroke-width: 2; stroke: #000000" x1="1074.84" y1="700" x2="1075" y2="680"/>
    <ellipse style="fill: #000000; fill-opacity: 1; stroke: none" cx="1160" cy="660" rx="4" ry="4"/>
    <line style="fill: none; stroke-opacity: 1; stroke-width: 2; stroke: #000000" x1="1130" y1="660" x2="1160" y2="660"/>
    <polyline style="fill: none; stroke-opacity: 1; stroke-width: 2; stroke: #000000" points="1020,680 999,680 999,780 1160,780 1160,780 "/>
    <ellipse style="fill: #000000; fill-opacity: 1; stroke: none" cx="1160" cy="780" rx="4" ry="4"/>
    <g>
      <line style="fill: none; stroke-opacity: 1; stroke-width: 2; stroke: #000000" x1="1160.29" y1="680" x2="1160.29" y2="700"/>
      <rect style="fill: #ffffff; fill-opacity: 1; stroke-opacity: 1; stroke-width: 2; stroke: #000000" x="1152.29" y="700" width="16" height="40" rx="0" ry="0"/>
      <line style="fill: none; stroke-opacity: 1; stroke-width: 2; stroke: #000000" x1="1160.29" y1="740" x2="1160.29" y2="760"/>
    </g>
    <line style="fill: none; stroke-opacity: 1; stroke-width: 2; stroke: #000000" x1="1160" y1="660" x2="1160.29" y2="680"/>
    <line style="fill: none; stroke-opacity: 1; stroke-width: 2; stroke: #000000" x1="1160.29" y1="760" x2="1160" y2="780"/>
    <text font-size="12.8" style="fill: #000000; fill-opacity: 1; stroke: none;text-anchor:start;font-family:sans-serif;font-style:normal;font-weight:normal" x="1160.29" y="676.425">
      <tspan xml:space="preserve" x="1160.29" y="676.425"> R4</tspan>
      <tspan xml:space="preserve" x="1160.29" y="692.425"> 24kΩ</tspan>
    </text>
    <g>
      <line style="fill: none; stroke-opacity: 1; stroke-width: 2; stroke: #000000" x1="1160.29" y1="800" x2="1160.29" y2="820"/>
      <rect style="fill: #ffffff; fill-opacity: 1; stroke-opacity: 1; stroke-width: 2; stroke: #000000" x="1152.29" y="820" width="16" height="40" rx="0" ry="0"/>
      <line style="fill: none; stroke-opacity: 1; stroke-width: 2; stroke: #000000" x1="1160.29" y1="860" x2="1160.29" y2="880"/>
    </g>
    <g>
      <rect style="fill: #000000; fill-opacity: 1; stroke-opacity: 1; stroke-width: 2; stroke: #000000" x="1141.54" y="937.391" width="37.3913" height="5.6087" rx="0" ry="0"/>
      <line style="fill: none; stroke-opacity: 1; stroke-width: 2; stroke: #000000" x1="1160.24" y1="900" x2="1160.24" y2="937.391"/>
    </g>
    <line style="fill: none; stroke-opacity: 1; stroke-width: 2; stroke: #000000" x1="1160.24" y1="900" x2="1160.29" y2="880"/>
    <line style="fill: none; stroke-opacity: 1; stroke-width: 2; stroke: #000000" x1="1160.29" y1="800" x2="1160" y2="780"/>
    <text font-size="12.8" style="fill: #000000; fill-opacity: 1; stroke: none;text-anchor:start;font-family:sans-serif;font-style:normal;font-weight:normal" x="1160.29" y="796.425">
      <tspan xml:space="preserve" x="1160.29" y="796.425"> R3</tspan>
      <tspan xml:space="preserve" x="1160.29" y="812.425"> 4k7Ω</tspan>
    </text>
    <text font-size="11.2889" style="fill: #000000; fill-opacity: 1; stroke: none;text-anchor:middle;font-family:sans-serif;font-style:normal;font-weight:normal" x="1075" y="677.3">
      <tspan x="1075" y="677.3">4</tspan>
    </text>
    <text font-size="11.2889" style="fill: #000000; fill-opacity: 1; stroke: none;text-anchor:middle;font-family:sans-serif;font-style:normal;font-weight:normal" x="1075" y="650.5">
      <tspan x="1075" y="650.5">8</tspan>
    </text>
    <text font-size="11.2889" style="fill: #000000; fill-opacity: 1; stroke: none;text-anchor:start;font-family:sans-serif;font-style:normal;font-weight:normal" x="1020" y="677.3">
      <tspan x="1020" y="677.3">2</tspan>
    </text>
    <text font-size="11.2889" style="fill: #000000; fill-opacity: 1; stroke: none;text-anchor:start;font-family:sans-serif;font-style:normal;font-weight:normal" x="1020" y="637.3">
      <tspan x="1020" y="637.3">3</tspan>
    </text>
    <text font-size="11.2889" style="fill: #000000; fill-opacity: 1; stroke: none;text-anchor:end;font-family:sans-serif;font-style:normal;font-weight:normal" x="1130" y="657.3">
      <tspan x="1130" y="657.3">1</tspan>
    </text>
    <g>
      <rect style="fill: none; stroke: none" x="1340" y="640" width="40" height="40" rx="0" ry="0"/>
      <ellipse style="fill: #ffffff; fill-opacity: 1; stroke-opacity: 1; stroke-width: 2; stroke: #000000" cx="1360" cy="660" rx="4" ry="4"/>
    </g>
    <text font-size="16.9333" style="fill: #000000; fill-opacity: 1; stroke: none;text-anchor:end;font-family:sans-serif;font-style:normal;font-weight:normal" x="145" y="286.875">
      <tspan x="145" y="286.875">8  </tspan>
    </text>
    <text font-size="16.9333" style="fill: #000000; fill-opacity: 1; stroke: none;text-anchor:start;font-family:sans-serif;font-style:normal;font-weight:normal" x="1360" y="665.875">
      <tspan xml:space="preserve" x="1360" y="665.875">  7</tspan>
    </text>
    <line style="fill: none; stroke-opacity: 1; stroke-width: 2; stroke: #000000" x1="1160" y1="660" x2="1360" y2="660"/>
    <text font-size="11.2889" style="fill: #000000; fill-opacity: 1; stroke: none;text-anchor:start;font-family:sans-serif;font-style:normal;font-weight:normal" x="1160" y="586.084">
      <tspan x="1160" y="586.084">V4 is amplified with factor</tspan>
      <tspan xml:space="preserve" x="1160" y="600.196"> (1+R4/R3) ≈ 6</tspan>
      <tspan xml:space="preserve" x="1160" y="614.307"> and limited by V2. </tspan>
      <tspan x="1160" y="628.418">V4 = 0 .. 3.3V</tspan>
      <tspan xml:space="preserve" x="1160" y="642.529"> ⇒ V5 = 0 .. ~18V</tspan>
      <tspan x="1160" y="656.64"></tspan>
    </text>
    <text font-size="12.8" style="fill: #000000; fill-opacity: 1; stroke: none;text-anchor:end;font-family:sans-serif;font-style:normal;font-weight:normal" x="1020" y="651.9">
      <tspan x="1020" y="651.9">V4= 0 .. 3.3V</tspan>
    </text>
    <text font-size="10.7244" style="fill: #000000; fill-opacity: 1; stroke: none;text-anchor:middle;font-family:sans-serif;font-style:normal;font-weight:normal" x="1064" y="663.725">
      <tspan x="1064" y="663.725">LM158D</tspan>
    </text>
    <text font-size="12.8" style="fill: #000000; fill-opacity: 1; stroke: none;text-anchor:end;font-family:sans-serif;font-style:normal;font-weight:normal" x="1360" y="672.274">
      <tspan x="1360" y="672.274">V5= 0 .. 18V </tspan>
    </text>
    <g>
      <line style="fill: none; stroke-opacity: 1; stroke-width: 2; stroke: #000000" x1="1160" y1="360" x2="1180" y2="360"/>
      <line style="fill: none; stroke-opacity: 1; stroke-width: 2; stroke: #000000" x1="1160" y1="400" x2="1180" y2="400"/>
      <polygon style="fill: #ffffff; fill-opacity: 1; stroke-opacity: 1; stroke-width: 2; stroke: #000000" fill-rule="evenodd" points="1180,340 1180,420 1250,380 "/>
      <line style="fill: none; stroke-opacity: 1; stroke-width: 2; stroke: #000000" x1="1184" y1="360" x2="1200" y2="360"/>
      <line style="fill: none; stroke-opacity: 1; stroke-width: 2; stroke: #000000" x1="1192" y1="352" x2="1192" y2="368"/>
      <line style="fill: none; stroke-opacity: 1; stroke-width: 2; stroke: #000000" x1="1184" y1="400" x2="1200" y2="400"/>
      <line style="fill: none; stroke-opacity: 1; stroke-width: 2; stroke: #000000" x1="1250" y1="380" x2="1270" y2="380"/>
    </g>
    <text font-size="11.2889" style="fill: #000000; fill-opacity: 1; stroke: none;text-anchor:middle;font-family:sans-serif;font-style:normal;font-weight:normal" x="1215" y="397.3">
      <tspan x="1215" y="397.3">4</tspan>
    </text>
    <text font-size="11.2889" style="fill: #000000; fill-opacity: 1; stroke: none;text-anchor:middle;font-family:sans-serif;font-style:normal;font-weight:normal" x="1215" y="370.5">
      <tspan x="1215" y="370.5">8</tspan>
    </text>
    <text font-size="11.2889" style="fill: #000000; fill-opacity: 1; stroke: none;text-anchor:start;font-family:sans-serif;font-style:normal;font-weight:normal" x="1160" y="397.3">
      <tspan x="1160" y="397.3">6</tspan>
    </text>
    <text font-size="11.2889" style="fill: #000000; fill-opacity: 1; stroke: none;text-anchor:start;font-family:sans-serif;font-style:normal;font-weight:normal" x="1160" y="357.3">
      <tspan x="1160" y="357.3">5</tspan>
    </text>
    <text font-size="11.2889" style="fill: #000000; fill-opacity: 1; stroke: none;text-anchor:end;font-family:sans-serif;font-style:normal;font-weight:normal" x="1270" y="377.3">
      <tspan x="1270" y="377.3">7</tspan>
    </text>
    <text font-size="10.7244" style="fill: #000000; fill-opacity: 1; stroke: none;text-anchor:middle;font-family:sans-serif;font-style:normal;font-weight:normal" x="1204" y="383.725">
      <tspan x="1204" y="383.725">LM158D</tspan>
    </text>
    <ellipse style="fill: #000000; fill-opacity: 1; stroke: none" cx="1074.6" cy="280" rx="4" ry="4"/>
    <line style="fill: none; stroke-opacity: 1; stroke-width: 2; stroke: #000000" x1="760" y1="280" x2="1074.6" y2="280"/>
    <line style="fill: none; stroke-opacity: 1; stroke-width: 2; stroke: #000000" x1="1074.6" y1="280" x2="1075" y2="640"/>
    <polyline style="fill: none; stroke-opacity: 1; stroke-width: 2; stroke: #000000" points="1074.6,280 1074.6,280 1215,280 1215,360 "/>
    <g>
      <rect style="fill: #000000; fill-opacity: 1; stroke-opacity: 1; stroke-width: 2; stroke: #000000" x="1095.42" y="397.391" width="37.3913" height="5.6087" rx="0" ry="0"/>
      <line style="fill: none; stroke-opacity: 1; stroke-width: 2; stroke: #000000" x1="1114.12" y1="360" x2="1114.12" y2="397.391"/>
    </g>
    <line style="fill: none; stroke-opacity: 1; stroke-width: 2; stroke: #000000" x1="1160" y1="360" x2="1114.12" y2="360"/>
    <g>
      <rect style="fill: #000000; fill-opacity: 1; stroke-opacity: 1; stroke-width: 2; stroke: #000000" x="1196" y="457.391" width="37.3913" height="5.6087" rx="0" ry="0"/>
      <line style="fill: none; stroke-opacity: 1; stroke-width: 2; stroke: #000000" x1="1214.7" y1="420" x2="1214.7" y2="457.391"/>
    </g>
    <line style="fill: none; stroke-opacity: 1; stroke-width: 2; stroke: #000000" x1="1215" y1="400" x2="1214.7" y2="420"/>
    <g>
      <line style="fill: none; stroke-opacity: 1; stroke-width: 2; stroke: #000000" x1="1340" y1="400" x2="1340" y2="420"/>
      <rect style="fill: #ffffff; fill-opacity: 1; stroke-opacity: 1; stroke-width: 2; stroke: #000000" x="1332" y="420" width="16" height="40" rx="0" ry="0"/>
      <line style="fill: none; stroke-opacity: 1; stroke-width: 2; stroke: #000000" x1="1340" y1="460" x2="1340" y2="480"/>
    </g>
    <g>
      <rect style="fill: #000000; fill-opacity: 1; stroke-opacity: 1; stroke-width: 2; stroke: #000000" x="1320" y="537" width="40" height="6" rx="0" ry="0"/>
      <line style="fill: none; stroke-opacity: 1; stroke-width: 2; stroke: #000000" x1="1340" y1="497" x2="1340" y2="537"/>
    </g>
    <line style="fill: none; stroke-opacity: 1; stroke-width: 2; stroke: #000000" x1="1340" y1="497" x2="1340" y2="480"/>
    <text font-size="12.8" style="fill: #000000; fill-opacity: 1; stroke: none;text-anchor:start;font-family:sans-serif;font-style:normal;font-weight:normal" x="1340" y="396.425">
      <tspan xml:space="preserve" x="1340" y="396.425"> R7</tspan>
      <tspan xml:space="preserve" x="1340" y="412.425"> 10kΩ</tspan>
    </text>
    <ellipse style="fill: #000000; fill-opacity: 1; stroke: none" cx="1300" cy="380" rx="4" ry="4"/>
    <polyline style="fill: none; stroke-opacity: 1; stroke-width: 2; stroke: #000000" points="1300,380 1300,380 1340,380 1340,400 "/>
    <line style="fill: none; stroke-opacity: 1; stroke-width: 2; stroke: #000000" x1="1270" y1="380" x2="1300" y2="380"/>
    <polyline style="fill: none; stroke-opacity: 1; stroke-width: 2; stroke: #000000" points="1300,380 1300,500 1160,500 1160,400 "/>
    <text font-size="11.2889" style="fill: #000000; fill-opacity: 1; stroke: none;text-anchor:start;font-family:sans-serif;font-style:normal;font-weight:normal" x="1215" y="300.856">
      <tspan xml:space="preserve" x="1215" y="300.856"> The LM158D contains 2 OpAmps,</tspan>
      <tspan xml:space="preserve" x="1215" y="314.967"> but we only need one.</tspan>
      <tspan xml:space="preserve" x="1215" y="329.078"> The second OpAmp has to be</tspan>
      <tspan xml:space="preserve" x="1215" y="343.189"> terminated.</tspan>
      <tspan x="1215" y="357.3"></tspan>
    </text>
    <text font-size="12.8" style="fill: #000000; fill-opacity: 1; stroke: none;text-anchor:middle;font-family:sans-serif;font-style:normal;font-weight:normal" x="340" y="611.9">
      <tspan xml:space="preserve" x="340" y="611.9"> Vin</tspan>
    </text>
    <text font-size="12.8" style="fill: #000000; fill-opacity: 1; stroke: none;text-anchor:end;font-family:sans-serif;font-style:normal;font-weight:normal" x="420" y="644.425">
      <tspan x="420" y="644.425">Vout </tspan>
    </text>
    <text font-size="12.8" style="fill: #000000; fill-opacity: 1; stroke: none;text-anchor:middle;font-family:sans-serif;font-style:normal;font-weight:normal" x="340" y="676.95">
      <tspan x="340" y="676.95">GNDout</tspan>
    </text>
    <line style="fill: none; stroke-opacity: 1; stroke-width: 2; stroke: #000000" x1="800" y1="640" x2="820" y2="640.796"/>
    <text font-size="12.8" style="fill: #000000; fill-opacity: 1; stroke: none;text-anchor:end;font-family:sans-serif;font-style:normal;font-weight:normal" x="1074.6" y="292.274">
      <tspan xml:space="preserve" x="1074.6" y="292.274"> V2=19V </tspan>
    </text>
    <g>
      <rect style="fill: #000000; fill-opacity: 1; stroke-opacity: 1; stroke-width: 2; stroke: #000000" x="200" y="797.391" width="37.3913" height="5.6087" rx="0" ry="0"/>
      <line style="fill: none; stroke-opacity: 1; stroke-width: 2; stroke: #000000" x1="218.696" y1="760" x2="218.696" y2="797.391"/>
    </g>
    <polyline style="fill: none; stroke-opacity: 1; stroke-width: 2; stroke: #000000" points="218.696,760 218.696,640 260,640 "/>
    <text font-size="12.8" style="fill: #000000; fill-opacity: 1; stroke: none;text-anchor:start;font-family:sans-serif;font-style:normal;font-weight:normal" x="260" y="644.425">
      <tspan xml:space="preserve" x="260" y="644.425"> GNDin</tspan>
    </text>
    <text font-size="11.2889" style="fill: #000000; fill-opacity: 1; stroke: none;text-anchor:end;font-family:sans-serif;font-style:normal;font-weight:normal" x="339.894" y="730.5">
      <tspan x="339.894" y="730.5">Short circuit the </tspan>
      <tspan x="339.894" y="744.611">GNDs to have </tspan>
      <tspan x="339.894" y="758.722">only one GND </tspan>
      <tspan x="339.894" y="772.833">everywhere. </tspan>
    </text>
    <text font-size="12.8" style="fill: #000000; fill-opacity: 1; stroke: none;text-anchor:start;font-family:sans-serif;font-style:normal;font-weight:normal" x="400" y="284.238">
      <tspan xml:space="preserve" x="400" y="284.238"> Input</tspan>
    </text>
    <text font-size="12.8" style="fill: #000000; fill-opacity: 1; stroke: none;text-anchor:end;font-family:sans-serif;font-style:normal;font-weight:normal" x="520" y="284.238">
      <tspan x="520" y="284.238">Output </tspan>
    </text>
    <text font-size="12.8" style="fill: #000000; fill-opacity: 1; stroke: none;text-anchor:middle;font-family:sans-serif;font-style:normal;font-weight:normal" x="460" y="296.202">
      <tspan x="460" y="296.202">Adjust</tspan>
    </text>
  </g>
</svg>
